<?xml version="1.0" encoding="UTF-8"?>
<svg xmlns="http://www.w3.org/2000/svg" id="Layer_1" data-name="Layer 1" viewBox="0 0 24 24">
    <path d="m20,1h-11c-2.206,0-4,1.794-4,4v9c0,2.206,1.794,4,4,4h11c2.206,0,4-1.794,4-4V5c0-2.206-1.794-4-4-4Zm-11,8h-3v-3h3v3Zm-3,1h3v3h-3v-3ZM10,2h9v15h-9V2Zm10,4h3v3h-3v-3Zm0,4h3v3h-3v-3Zm3-5h-3v-3c1.654,0,3,1.346,3,3Zm-14-3v3h-3c0-1.654,1.346-3,3-3Zm-3,12h3v3c-1.654,0-3-1.346-3-3Zm14,3v-3h3c0,1.654-1.346,3-3,3Zm-2.256,3.229c.188.203.176.52-.027.707-.742.687-1.707,1.064-2.717,1.064H4c-2.206,0-4-1.794-4-4v-8c0-1.563.865-2.845,2.313-3.429.257-.101.547.021.651.277.103.256-.021.547-.277.65-1.072.432-1.687,1.344-1.687,2.501v8c0,1.654,1.346,3,3,3h11c.758,0,1.481-.283,2.038-.799.202-.188.52-.177.707.027Z"/>
</svg>
