<svg width="498.55" height="105.4383283475642" viewBox="0 0 390 82.4810912757999" class="looka-1j8o68f"><defs id="SvgjsDefs2414"></defs><g id="SvgjsG2415" featurekey="2ou6gm-0" transform="matrix(1.0721397947343267,0,0,1.0721397947343267,1.5141650375276505,1.6460373652235596)" fill="#ffffff"><polygon xmlns="http://www.w3.org/2000/svg" points="52.307,26.967 66.344,33.987 52.307,41.007 "></polygon><path xmlns="http://www.w3.org/2000/svg" d="M44.626,69.348c-4.999,0-9.064-4.065-9.064-9.062c0-4.998,4.065-9.064,9.064-9.064c4.998,0,9.063,4.066,9.063,9.064  C53.689,65.282,49.625,69.348,44.626,69.348z"></path><path xmlns="http://www.w3.org/2000/svg" d="M23.002,75.396c-3.176,0-5.76-2.583-5.76-5.76V50.932c0-3.177,2.584-5.762,5.76-5.762h7.993  c0.149,0,0.271-0.122,0.271-0.271V18.207c0-0.6,0.488-1.088,1.087-1.088h49.091c0.6,0,1.088,0.488,1.088,1.088v35.066  c0,0.6-0.488,1.087-1.088,1.087H65.271c-0.15,0-0.271,0.122-0.271,0.272v15.004c0,3.177-2.584,5.76-5.762,5.76H23.002z   M44.626,47.959c-6.797,0-12.326,5.529-12.326,12.326c0,6.796,5.529,12.324,12.326,12.324c6.795,0,12.325-5.528,12.325-12.324  C56.951,53.488,51.422,47.959,44.626,47.959z M23.587,49.548c-1.086,0-1.971,0.885-1.971,1.971s0.885,1.971,1.971,1.971  c1.085,0,1.968-0.885,1.968-1.971S24.672,49.548,23.587,49.548z M46.379,39.912c2.884,0,5.337,2.159,5.707,5.021  c0.018,0.136,0.133,0.237,0.27,0.237h6.883c3.178,0,5.762,2.585,5.762,5.762v0.983c0,0.149,0.121,0.271,0.271,0.271h14.814  c0.15,0,0.273-0.122,0.273-0.271v-32.35c0-0.15-0.123-0.272-0.273-0.272H33.712c-0.149,0-0.271,0.122-0.271,0.272v25.333  c0,0.149,0.122,0.271,0.271,0.271h3.184c0.137,0,0.253-0.102,0.27-0.237c0.37-2.861,2.824-5.021,5.707-5.021H46.379z M56.898,48.136  c-0.436,0.001-0.846,0.171-1.152,0.479c-0.309,0.309-0.477,0.718-0.477,1.153c0,0.898,0.732,1.63,1.631,1.63l3.508-0.004  c0.898-0.001,1.629-0.733,1.629-1.632c-0.002-0.898-0.732-1.63-1.631-1.63h-0.002L56.898,48.136z M41.121,43.068  c-0.899,0-1.631,0.731-1.631,1.631c0,0.898,0.731,1.631,1.631,1.631h7.014c0.898,0,1.631-0.732,1.631-1.631  c0-0.899-0.732-1.631-1.631-1.631H41.121z"></path></g><g id="SvgjsG2416" featurekey="kZnDdN-0" transform="matrix(2.51708058058851,0,0,2.51708058058851,107.73462843766038,18.501615279696157)" fill="#ffffff"><path d="M15.22 13 c0 2.18 -0.94 4.02 -2.34 5.3 l1.38 1.7 l-1.96 0 l-0.64 -0.8 c-1.1 0.64 -2.34 1 -3.6 1 c-3.66 0 -7.16 -2.96 -7.16 -7.2 s3.5 -7.2 7.16 -7.2 c3.64 0 7.16 2.96 7.16 7.2 z M8.06 18.62 c0.9 0 1.78 -0.24 2.56 -0.7 l-3.08 -3.82 l1.96 0 l2.34 2.9 c1 -0.98 1.66 -2.38 1.66 -4 c0 -3.3 -2.7 -5.62 -5.44 -5.62 c-2.76 0 -5.44 2.32 -5.44 5.62 s2.68 5.62 5.44 5.62 z M25.82 6 l1.66 0 l0 8.92 c0 3.44 -2.24 5.38 -5.08 5.38 s-5.08 -1.94 -5.08 -5.38 l0 -8.92 l1.66 0 l0 8.92 c0 2.62 1.56 3.8 3.42 3.8 s3.42 -1.18 3.42 -3.8 l0 -8.92 z M31.54 6 l0 14 l-1.66 0 l0 -14 l1.66 0 z M45.5 18.5 c-1.28 1.1 -2.9 1.7 -4.7 1.7 c-3.64 0 -7.16 -2.96 -7.16 -7.2 s3.52 -7.2 7.16 -7.2 c1.78 0 3.38 0.6 4.64 1.66 l-1.02 1.16 c-0.98 -0.78 -2.24 -1.24 -3.5 -1.24 c-2.86 0 -5.56 2.32 -5.56 5.62 s2.7 5.62 5.56 5.62 c1.28 0 2.56 -0.48 3.54 -1.28 z M56.56 20 l-5.42 -6.54 l-2.04 2.22 l0 4.32 l-1.7 0 l0 -14 l1.7 0 l0 7.5 l6.82 -7.5 l2.08 0 l-5.82 6.34 l6.34 7.66 l-1.96 0 z M70.5 20 l-1.8 0 l-3.54 -5.04 l-0.38 0 l-2.9 0 l0 5.04 l-1.66 0 l0 -14 l4.56 0 c3.14 0 4.96 1.92 4.96 4.52 c0 2 -1.08 3.56 -3 4.16 z M61.88 7.5600000000000005 l0 5.92 l2.86 0 c2.02 0 3.34 -1.04 3.34 -2.96 c0 -1.94 -1.32 -2.96 -3.34 -2.96 l-2.86 0 z M73.96000000000001 18.44 l6.66 0 l0 1.56 l-7.06 0 l-1.26 0 l0 -14 l1.66 0 l6.48 0 l0 1.56 l-6.48 0 l0 4.64 l5.04 0 l0 1.52 l-5.04 0 l0 4.72 z M84.38000000000001 18.44 l6.66 0 l0 1.56 l-7.06 0 l-1.26 0 l0 -14 l1.66 0 l6.48 0 l0 1.56 l-6.48 0 l0 4.64 l5.04 0 l0 1.52 l-5.04 0 l0 4.72 z M94.80000000000001 18.44 l6.28 0 l0 1.56 l-7.94 0 l0 -14 l1.66 0 l0 12.44 z M107.38000000000001 5.76 c2.18 0 3.78 1.44 4.38 2.94 l-1.26 0.68 c-0.64 -1.28 -1.66 -2.12 -3.12 -2.12 c-1.54 0 -2.6 0.88 -2.6 2.1 c0 1.14 0.72 1.86 2.24 2.44 l1.02 0.38 c2.52 0.94 4.1 2.02 4.1 4.24 c0 2.4 -2.3 3.88 -4.68 3.88 s-4.34 -1.44 -4.88 -3.44 l1.34 -0.64 c0.48 1.48 1.74 2.56 3.54 2.56 c1.6 0 2.96 -0.92 2.96 -2.34 c0 -1.6 -1.12 -2.2 -2.78 -2.84 l-1.04 -0.4 c-2.12 -0.8 -3.48 -1.9 -3.48 -3.88 c0 -2.04 1.8 -3.56 4.26 -3.56 z"></path></g></svg>